<?xml version="1.0" encoding="UTF-8"?>
<!DOCTYPE svg PUBLIC "-//W3C//DTD SVG 1.1//EN" "http://www.w3.org/Graphics/SVG/1.1/DTD/svg11.dtd">
<!-- Creator: CorelDRAW 2021.5 -->
<svg xmlns="http://www.w3.org/2000/svg" xml:space="preserve" width="282.55mm" height="109.118mm" version="1.1" style="shape-rendering:geometricPrecision; text-rendering:geometricPrecision; image-rendering:optimizeQuality; fill-rule:evenodd; clip-rule:evenodd"
viewBox="0 0 28254.96 10911.84"
 xmlns:xlink="http://www.w3.org/1999/xlink"
 xmlns:xodm="http://www.corel.com/coreldraw/odm/2003">
 <defs>
  <style type="text/css">
   <![CDATA[
    .fil2 {fill:none}
    .fil1 {fill:#EB370E}
    .fil0 {fill:#FDF4E9}
   ]]>
  </style>
 </defs>
 <g id="Layer_x0020_1">
  <metadata id="CorelCorpID_0Corel-Layer"/>
  <g id="_105553125300480">
   <g>
    <polygon class="fil0" points="2267.66,2834.5 5610.59,8684.27 6864.55,6504.3 8107.21,8684.27 11462.78,2837.37 9903.14,2834.5 7993.83,6153.75 6873.63,4217.36 5750.41,6170.01 3821.75,2836.08 "/>
    <polygon class="fil0" points="6073.68,2834.5 7669.06,2834.5 6873.63,4217.36 "/>
    <polygon class="fil1" points="3821.75,2836.08 5750.41,6170.01 6871.13,4221.71 7991.84,6170.01 9920.5,2836.08 7668.57,2834.5 6871.13,4213.03 6073.68,2834.5 "/>
   </g>
   <g>
    <path class="fil0" d="M24982.4 2361.36c23.95,10.24 55.75,17.4 85.88,26.46 355.1,106.82 624.95,395.54 739.52,745.63 13.71,41.89 34.6,162.93 45.28,183.1l123.82 4.55c24.91,-64.53 -85.51,-352.95 -122.87,-426.99 -121.1,-240.04 -320.23,-433.72 -553.52,-555.67 -63.22,-33.05 -124.52,-56.1 -197.93,-80.1 -135.74,-44.36 -111.74,-35.32 -117.47,36.26 -1.73,21.6 -4.43,45.5 -2.71,66.76z"/>
    <path class="fil0" d="M24973.23 2486.49c-9.25,23.09 -12.75,101.55 -9.06,131.6 169.4,44.68 307.38,146.23 408.01,250.8 82.45,85.67 144.98,194.71 186.49,309.94 14.6,40.54 20.9,92.98 36.38,128.61 33.44,2.73 100.91,8.21 132.07,2.86 0.16,-73.49 -66.1,-239.86 -94.73,-296.82 -112.37,-223.51 -281.95,-379.6 -508.95,-480.39 -21.14,-9.39 -46.33,-19.3 -71.08,-26.57l-79.13 -20.03z"/>
    <path class="fil0" d="M24940.77 2917.47c47.92,25.95 59.84,24.21 117.88,63.9 73.27,50.12 131.28,115.94 175.73,190.71 25.54,42.95 37.35,80.82 56.04,126.44l136.04 4.54c-0.49,-48.38 -47.5,-144.35 -67.31,-182.14 -53.35,-101.71 -146.29,-199.79 -239.85,-259.68 -29.27,-18.73 -135.46,-82.19 -171.82,-77.52 -1.59,29.32 -11.13,112.63 -6.71,133.75z"/>
   </g>
   <path class="fil0" d="M14196.33 4066.22c857.73,0 1553.07,695.34 1553.07,1553.07 0,294.13 -81.77,569.16 -223.82,803.6l0.02 0 -625.71 1089.15 -244.38 -408.68 0.04 -0.05c-145.14,44.86 -299.35,69.05 -459.22,69.05 -857.73,0 -1553.07,-695.34 -1553.07,-1553.07 0,-857.73 695.34,-1553.07 1553.07,-1553.07zm0 732.25c453.33,0 820.82,367.49 820.82,820.82 0,453.33 -367.49,820.82 -820.82,820.82 -453.33,0 -820.82,-367.49 -820.82,-820.82 0,-453.33 367.49,-820.82 820.82,-820.82z"/>
   <path class="fil0" d="M21364.19 2837.18c27.66,0 55.09,0.96 82.33,2.65l2610.93 0c27.24,-1.69 54.67,-2.65 82.33,-2.65 723.9,0 1310.75,586.85 1310.75,1310.75 0,23.72 -0.64,47.29 -1.89,70.71l1.87 0 0 1649.86 0.02 3.43 -0.02 1.57 0 101.93 -4.04 0c-47.65,609.95 -508.69,1093.08 -1091.96,1189.61l0.11 0.02 -2697.52 1525.63 875.35 -1511.28 -1076.12 0c-30.44,2.11 -61.16,3.27 -92.14,3.27 -689.06,0 -1253.92,-531.74 -1306.69,-1207.25l-2.19 0 0 -33.52c-1.23,-23.18 -1.87,-46.5 -1.87,-69.98 0,-23.56 0.64,-46.98 1.87,-70.24l0 -1583.05 0.02 0c-1.25,-23.42 -1.89,-46.99 -1.89,-70.71 0,-723.9 586.85,-1310.75 1310.75,-1310.75zm-36.87 1458.67l0 362.46 531.07 0 3.47 1064.88 363.4 0 0 -1063.98 526.09 0 616.01 1058.98 824.71 -1418.82 -351.49 0 -468.89 809.86 -472.25 -815.32 -1572.12 1.94z"/>
   <path class="fil0" d="M18933.03 5535.51l0 1667.05 -741.2 0 0 -1667.05c0,0 -1.35,-340.39 -201.45,-574.71 0,0 -186.49,-252.41 -485.7,-226.53 -299.21,25.88 -600.5,329.22 -600.5,830.08l0 1638.21 -751.36 0 0 -4364.72 751.36 0 0 1734.45c0,0 324.35,-489.08 838.65,-489.08 514.3,0 1190.2,425.35 1190.2,1452.3z"/>
   <circle class="fil2" cx="14196.33" cy="5619.29" r="820.82"/>
   <path class="fil0" d="M14196.33 7343.86c253.26,0 492.34,60.66 703.56,168.18l-368.11 635.55c-102.42,-45.91 -215.95,-71.48 -335.45,-71.48 -382.1,0 -703.2,261.08 -794.68,614.58l-744.73 0c100.88,-760.22 751.61,-1346.83 1539.41,-1346.83z"/>
   <path class="fil0" d="M10638.98 5267.2l1587.18 0c0,0 -57.38,432.38 23.66,734.82l-2038.42 0.13 427.58 -734.95z"/>
   <polygon class="fil1" points="15147.95,4244.11 15147.95,3400.91 15876.2,3823.14 "/>
  </g>
 </g>
</svg>
